<svg xmlns="http://www.w3.org/2000/svg" viewBox="0 0 1200 800" fill="none">
  <defs>
    <linearGradient id="bg" x1="80" y1="50" x2="1120" y2="750" gradientUnits="userSpaceOnUse">
      <stop stop-color="#F7F5EF"/>
      <stop offset="1" stop-color="#E9F0EC"/>
    </linearGradient>
  </defs>
  <rect width="1200" height="800" fill="url(#bg)"/>
  <circle cx="960" cy="170" r="140" fill="#FF5938" fill-opacity=".11"/>
  <circle cx="260" cy="640" r="200" fill="#0F4338" fill-opacity=".09"/>
  <rect x="350" y="150" width="500" height="500" rx="40" fill="#fff" fill-opacity=".96"/>
  <rect x="410" y="212" width="380" height="24" rx="12" fill="#0F4338" fill-opacity=".18"/>
  <rect x="410" y="262" width="300" height="24" rx="12" fill="#FF5938" fill-opacity=".7"/>
  <rect x="410" y="312" width="340" height="24" rx="12" fill="#0F4338" fill-opacity=".12"/>
  <circle cx="600" cy="480" r="116" fill="#0F4338" fill-opacity=".9"/>
  <circle cx="600" cy="480" r="70" fill="#F7F5EF"/>
  <path d="M570 480h60" stroke="#FF5938" stroke-width="16" stroke-linecap="round"/>
  <path d="M600 450v60" stroke="#FF5938" stroke-width="16" stroke-linecap="round"/>
  <path d="M480 558l-40 92 80-18 44 60 28-108" fill="#FF5938" fill-opacity=".86"/>
  <path d="M720 558l40 92-80-18-44 60-28-108" fill="#0F4338" fill-opacity=".86"/>
</svg>
