<svg xmlns="http://www.w3.org/2000/svg" viewBox="0 0 1200 800" fill="none">
  <defs>
    <linearGradient id="bg" x1="100" y1="80" x2="1100" y2="720" gradientUnits="userSpaceOnUse">
      <stop stop-color="#F7F5EF"/>
      <stop offset="1" stop-color="#E8F1EC"/>
    </linearGradient>
  </defs>
  <rect width="1200" height="800" fill="url(#bg)"/>
  <circle cx="980" cy="180" r="160" fill="#0F4338" fill-opacity=".10"/>
  <circle cx="240" cy="620" r="220" fill="#FF5938" fill-opacity=".10"/>
  <path d="M328 538c0-142 110-256 252-256 104 0 192 58 234 146 31-8 63-13 97-13 117 0 214 70 260 173H328Z" fill="#fff" fill-opacity=".95"/>
  <path d="M430 510c0-96 78-174 174-174s174 78 174 174H430Z" fill="#0F4338" fill-opacity=".12"/>
  <path d="M514 438c22-46 67-77 120-77 71 0 129 58 129 129 0 14-2 28-7 41-17-19-39-33-65-40-25-7-52-8-79-3-30 5-58 17-83 35-10-26-11-54-15-85Z" fill="#FF5938" fill-opacity=".82"/>
</svg>
